<?xml version="1.0" encoding="UTF-8" standalone="no"?>
<!-- Created with Inkscape (http://www.inkscape.org/) -->

<svg
   xmlns:dc="http://purl.org/dc/elements/1.1/"
   xmlns:cc="http://creativecommons.org/ns#"
   xmlns:rdf="http://www.w3.org/1999/02/22-rdf-syntax-ns#"
   xmlns:svg="http://www.w3.org/2000/svg"
   xmlns="http://www.w3.org/2000/svg"
   xmlns:sodipodi="http://sodipodi.sourceforge.net/DTD/sodipodi-0.dtd"
   xmlns:inkscape="http://www.inkscape.org/namespaces/inkscape"
   width="384.57111"
   height="342.45697"
   viewBox="0 0 384.57111 342.45697"
   id="svg5847"
   version="1.1"
   inkscape:version="0.91 r13725"
   sodipodi:docname="logo.svg"
   inkscape:export-filename="C:\Users\Luca\Desktop\hackathon\logo\logo-alpha.png"
   inkscape:export-xdpi="93.296394"
   inkscape:export-ydpi="93.296394">
  <defs
     id="defs5849">
    <inkscape:perspective
       sodipodi:type="inkscape:persp3d"
       inkscape:vp_x="-198.44554 : 2.4301766e-014 : 0"
       inkscape:vp_y="173.64818 : 984.80775 : 0"
       inkscape:vp_z="264.7086 : -123.43565 : 0"
       inkscape:persp3d-origin="221.9356 : 57.62564 : 1"
       id="perspective3351-4-1-2-4" />
    <inkscape:perspective
       sodipodi:type="inkscape:persp3d"
       inkscape:vp_x="-198.44554 : 2.4301766e-014 : 0"
       inkscape:vp_y="173.64818 : 984.80775 : 0"
       inkscape:vp_z="264.7086 : -123.43565 : 0"
       inkscape:persp3d-origin="245.0585 : 186.45334 : 1"
       id="perspective3351-4-1-1-3" />
    <inkscape:perspective
       sodipodi:type="inkscape:persp3d"
       inkscape:vp_x="-198.44554 : 2.4301766e-014 : 0"
       inkscape:vp_y="173.64818 : 984.80775 : 0"
       inkscape:vp_z="264.7086 : -123.43565 : 0"
       inkscape:persp3d-origin="246.7101 : 189.75654 : 1"
       id="perspective4600-6" />
    <inkscape:perspective
       sodipodi:type="inkscape:persp3d"
       inkscape:vp_x="-198.44554 : 2.4301766e-014 : 0"
       inkscape:vp_y="173.64818 : 984.80775 : 0"
       inkscape:vp_z="264.7086 : -123.43565 : 0"
       inkscape:persp3d-origin="93.107992 : 55.97414 : 1"
       id="perspective3351-4-1-4-6" />
    <inkscape:perspective
       sodipodi:type="inkscape:persp3d"
       inkscape:vp_x="-198.44554 : 2.4301766e-014 : 0"
       inkscape:vp_y="173.64818 : 984.80775 : 0"
       inkscape:vp_z="264.7086 : -123.43565 : 0"
       inkscape:persp3d-origin="117.9818 : 186.40494 : 1"
       id="perspective3351-4-1-9" />
    <inkscape:perspective
       sodipodi:type="inkscape:persp3d"
       inkscape:vp_x="-198.44554 : 2.4301766e-014 : 0"
       inkscape:vp_y="173.64818 : 984.80775 : 0"
       inkscape:vp_z="264.7086 : -123.43565 : 0"
       inkscape:persp3d-origin="1243.7592 : 2680.4284 : 1"
       id="perspective5787" />
    <inkscape:perspective
       sodipodi:type="inkscape:persp3d"
       inkscape:vp_x="-198.44554 : 2.4301766e-014 : 0"
       inkscape:vp_y="173.64818 : 984.80775 : 0"
       inkscape:vp_z="264.7086 : -123.43565 : 0"
       inkscape:persp3d-origin="111.8388 : 113.65994 : 1"
       id="perspective3351-9-0-9-7-3" />
    <inkscape:perspective
       sodipodi:type="inkscape:persp3d"
       inkscape:vp_x="-198.44554 : 2.4301766e-014 : 0"
       inkscape:vp_y="173.64818 : 984.80775 : 0"
       inkscape:vp_z="264.7086 : -123.43565 : 0"
       inkscape:persp3d-origin="136.7127 : 244.09074 : 1"
       id="perspective3351-9-0-9-79" />
  </defs>
  <sodipodi:namedview
     id="base"
     pagecolor="#ff0000"
     bordercolor="#666666"
     borderopacity="1.0"
     inkscape:pageopacity="0"
     inkscape:pageshadow="2"
     inkscape:zoom="1.4"
     inkscape:cx="16.978982"
     inkscape:cy="179.78274"
     inkscape:document-units="px"
     inkscape:current-layer="layer1"
     showgrid="false"
     units="px"
     fit-margin-top="0"
     fit-margin-left="0"
     fit-margin-right="0"
     fit-margin-bottom="0"
     inkscape:window-width="1366"
     inkscape:window-height="715"
     inkscape:window-x="-8"
     inkscape:window-y="-8"
     inkscape:window-maximized="1"
     inkscape:snap-bbox="false"
     inkscape:object-paths="true"
     inkscape:snap-intersection-paths="true"
     inkscape:snap-smooth-nodes="true"
     inkscape:object-nodes="true"
     inkscape:snap-midpoints="true" />
  <metadata
     id="metadata5852">
    <rdf:RDF>
      <cc:Work
         rdf:about="">
        <dc:format>image/svg+xml</dc:format>
        <dc:type
           rdf:resource="http://purl.org/dc/dcmitype/StillImage" />
        <dc:title></dc:title>
      </cc:Work>
    </rdf:RDF>
  </metadata>
  <g
     inkscape:label="Calque 1"
     inkscape:groupmode="layer"
     id="layer1"
     transform="translate(-58.995048,-606.39724)">
    <g
       sodipodi:type="inkscape:box3d"
       id="g3523-2-7-2-0"
       style="fill:#ffffff;stroke:none"
       inkscape:perspectiveID="#perspective3351-9-0-9-79"
       inkscape:corner0="0.54164924 : 0.025710398 : 0 : 1"
       inkscape:corner7="0.1786121 : -0.035066945 : 0.11899357 : 1"
       inkscape:export-xdpi="93"
       inkscape:export-ydpi="93">
      <path
         sodipodi:type="inkscape:box3dside"
         id="path3535-6-3-4-5"
         style="fill:none;fill-rule:evenodd;stroke:none;stroke-width:1px;stroke-linecap:butt;stroke-linejoin:round;stroke-opacity:1"
         inkscape:box3dsidetype="11"
         d="m 124.18306,694.13172 72.0431,0 -10.55388,59.854 -72.0431,0 z"
         points="196.22616,694.13172 185.67228,753.98572 113.62918,753.98572 124.18306,694.13172 " />
      <path
         sodipodi:type="inkscape:box3dside"
         id="path3525-1-2-2-8"
         style="fill:none;fill-rule:evenodd;stroke:none;stroke-width:1px;stroke-linecap:butt;stroke-linejoin:round;stroke-opacity:1"
         inkscape:box3dsidetype="6"
         d="m 92.684434,679.44367 -10.553875,59.854 31.498621,14.68805 10.55388,-59.854 z"
         points="82.130559,739.29767 113.62918,753.98572 124.18306,694.13172 92.684434,679.44367 " />
      <path
         sodipodi:type="inkscape:box3dside"
         id="path3527-6-3-9-2"
         style="fill:none;fill-rule:evenodd;stroke:none;stroke-width:1px;stroke-linecap:butt;stroke-linejoin:round;stroke-opacity:1"
         inkscape:box3dsidetype="5"
         d="m 92.684434,679.44367 72.043106,0 31.49862,14.68805 -72.0431,0 z"
         points="164.72754,679.44367 196.22616,694.13172 124.18306,694.13172 92.684434,679.44367 " />
      <path
         sodipodi:type="inkscape:box3dside"
         id="path3533-5-1-8-01"
         style="fill:#666666;fill-rule:evenodd;stroke:none;stroke-width:1px;stroke-linecap:butt;stroke-linejoin:round;stroke-opacity:1"
         inkscape:box3dsidetype="13"
         d="m 82.130559,739.29767 72.043101,0 31.49862,14.68805 -72.0431,0 z"
         points="154.17366,739.29767 185.67228,753.98572 113.62918,753.98572 82.130559,739.29767 " />
      <path
         sodipodi:type="inkscape:box3dside"
         id="path3531-4-3-6-7"
         style="fill:none;fill-rule:evenodd;stroke:none;stroke-width:1px;stroke-linecap:butt;stroke-linejoin:round;stroke-opacity:1"
         inkscape:box3dsidetype="14"
         d="m 164.72754,679.44367 -10.55388,59.854 31.49862,14.68805 10.55388,-59.854 z"
         points="154.17366,739.29767 185.67228,753.98572 196.22616,694.13172 164.72754,679.44367 " />
      <path
         sodipodi:type="inkscape:box3dside"
         id="path3529-0-6-4-9"
         style="fill:#ffffff;fill-rule:evenodd;stroke:none;stroke-width:1px;stroke-linecap:butt;stroke-linejoin:round;stroke-opacity:1"
         inkscape:box3dsidetype="3"
         d="m 92.684434,679.44367 72.043106,0 -10.55388,59.854 -72.043101,0 z"
         points="164.72754,679.44367 154.17366,739.29767 82.130559,739.29767 92.684434,679.44367 " />
    </g>
    <g
       sodipodi:type="inkscape:box3d"
       id="g3523-2-7-2-4-6"
       style="fill:#ffffff;stroke:none"
       inkscape:perspectiveID="#perspective3351-9-0-9-7-3"
       inkscape:corner0="0.53299435 : 0.024652859 : 0 : 1"
       inkscape:corner7="0.18605561 : -0.035148382 : 0.11899357 : 1"
       inkscape:export-xdpi="93"
       inkscape:export-ydpi="93">
      <path
         sodipodi:type="inkscape:box3dside"
         id="path3535-6-3-4-32-9"
         style="fill:none;fill-rule:evenodd;stroke:none;stroke-width:1px;stroke-linecap:butt;stroke-linejoin:round;stroke-opacity:1"
         inkscape:box3dsidetype="11"
         d="m 100.84304,825.60399 68.84845,0 -10.38438,58.89273 -68.848446,0 z"
         points="169.69149,825.60399 159.30711,884.49672 90.458664,884.49672 100.84304,825.60399 " />
      <path
         sodipodi:type="inkscape:box3dside"
         id="path3525-1-2-2-3-5"
         style="fill:none;fill-rule:evenodd;stroke:none;stroke-width:1px;stroke-linecap:butt;stroke-linejoin:round;stroke-opacity:1"
         inkscape:box3dsidetype="6"
         d="m 69.344419,810.91594 -10.384376,58.89273 31.498621,14.68805 10.384376,-58.89273 z"
         points="58.960043,869.80867 90.458664,884.49672 100.84304,825.60399 69.344419,810.91594 " />
      <path
         sodipodi:type="inkscape:box3dside"
         id="path3527-6-3-9-7-7"
         style="fill:none;fill-rule:evenodd;stroke:none;stroke-width:1px;stroke-linecap:butt;stroke-linejoin:round;stroke-opacity:1"
         inkscape:box3dsidetype="5"
         d="m 69.344419,810.91594 68.848441,0 31.49863,14.68805 -68.84845,0 z"
         points="138.19286,810.91594 169.69149,825.60399 100.84304,825.60399 69.344419,810.91594 " />
      <path
         sodipodi:type="inkscape:box3dside"
         id="path3533-5-1-8-0-9"
         style="fill:#666666;fill-rule:evenodd;stroke:none;stroke-width:1px;stroke-linecap:butt;stroke-linejoin:round;stroke-opacity:1"
         inkscape:box3dsidetype="13"
         d="m 58.960043,869.80867 68.848447,0 31.49862,14.68805 -68.848446,0 z"
         points="127.80849,869.80867 159.30711,884.49672 90.458664,884.49672 58.960043,869.80867 " />
      <path
         sodipodi:type="inkscape:box3dside"
         id="path3531-4-3-6-2-8"
         style="fill:none;fill-rule:evenodd;stroke:none;stroke-width:1px;stroke-linecap:butt;stroke-linejoin:round;stroke-opacity:1"
         inkscape:box3dsidetype="14"
         d="m 138.19286,810.91594 -10.38437,58.89273 31.49862,14.68805 10.38438,-58.89273 z"
         points="127.80849,869.80867 159.30711,884.49672 169.69149,825.60399 138.19286,810.91594 " />
      <path
         sodipodi:type="inkscape:box3dside"
         id="path3529-0-6-4-2-8"
         style="fill:#ffffff;fill-rule:evenodd;stroke:none;stroke-width:1px;stroke-linecap:butt;stroke-linejoin:round;stroke-opacity:1"
         inkscape:box3dsidetype="3"
         d="m 69.344419,810.91594 68.848441,0 -10.38437,58.89273 -68.848447,0 z"
         points="138.19286,810.91594 127.80849,869.80867 58.960043,869.80867 69.344419,810.91594 " />
    </g>
    <g
       sodipodi:type="inkscape:box3d"
       id="g3495-1-6-8"
       style="fill:#ffffff;stroke:none"
       inkscape:perspectiveID="#perspective3351-4-1-9"
       inkscape:corner0="0.1523743 : 0.15840482 : 0 : 1"
       inkscape:corner7="-0.1476511 : -0.17750124 : 0.094414138 : 1"
       inkscape:export-xdpi="93"
       inkscape:export-ydpi="93">
      <path
         sodipodi:type="inkscape:box3dside"
         id="path3507-6-6-6"
         style="fill:none;fill-rule:evenodd;stroke:none;stroke-width:1px;stroke-linecap:butt;stroke-linejoin:round;stroke-opacity:1"
         inkscape:box3dsidetype="11"
         d="m 199.23779,618.10505 59.5387,0 -58.32947,330.80289 -59.53871,0 z"
         points="258.77649,618.10505 200.44702,948.90794 140.90831,948.90794 199.23779,618.10505 " />
      <path
         sodipodi:type="inkscape:box3dside"
         id="path3497-8-4-2"
         style="fill:none;fill-rule:evenodd;stroke:none;stroke-width:1px;stroke-linecap:butt;stroke-linejoin:round;stroke-opacity:1"
         inkscape:box3dsidetype="6"
         d="m 174.24556,606.45098 -58.32948,330.80289 24.99223,11.65407 58.32948,-330.80289 z"
         points="115.91608,937.25387 140.90831,948.90794 199.23779,618.10505 174.24556,606.45098 " />
      <path
         sodipodi:type="inkscape:box3dside"
         id="path3499-9-2-0"
         style="fill:none;fill-rule:evenodd;stroke:none;stroke-width:1px;stroke-linecap:butt;stroke-linejoin:round;stroke-opacity:1"
         inkscape:box3dsidetype="5"
         d="m 174.24556,606.45098 59.5387,0 24.99223,11.65407 -59.5387,0 z"
         points="233.78426,606.45098 258.77649,618.10505 199.23779,618.10505 174.24556,606.45098 " />
      <path
         sodipodi:type="inkscape:box3dside"
         id="path3505-0-2-9"
         style="fill:#666666;fill-rule:evenodd;stroke:none;stroke-width:1px;stroke-linecap:butt;stroke-linejoin:round;stroke-opacity:1"
         inkscape:box3dsidetype="13"
         d="m 115.91608,937.25387 59.5387,0 24.99224,11.65407 -59.53871,0 z"
         points="175.45478,937.25387 200.44702,948.90794 140.90831,948.90794 115.91608,937.25387 " />
      <path
         sodipodi:type="inkscape:box3dside"
         id="path3503-3-7-5"
         style="fill:#cccccc;fill-rule:evenodd;stroke:none;stroke-width:1px;stroke-linecap:butt;stroke-linejoin:round;stroke-opacity:1"
         inkscape:box3dsidetype="14"
         d="m 233.78426,606.45098 -58.32948,330.80289 24.99224,11.65407 58.32947,-330.80289 z"
         points="175.45478,937.25387 200.44702,948.90794 258.77649,618.10505 233.78426,606.45098 " />
      <path
         sodipodi:type="inkscape:box3dside"
         id="path3501-7-9-0"
         style="fill:#ffffff;fill-rule:evenodd;stroke:none;stroke-width:1px;stroke-linecap:butt;stroke-linejoin:round;stroke-opacity:1"
         inkscape:box3dsidetype="3"
         d="m 174.24556,606.45098 59.5387,0 -58.32948,330.80289 -59.5387,0 z"
         points="233.78426,606.45098 175.45478,937.25387 115.91608,937.25387 174.24556,606.45098 " />
    </g>
    <g
       sodipodi:type="inkscape:box3d"
       id="g3523-22-3-9"
       style="fill:#ffffff;stroke:none"
       inkscape:perspectiveID="#perspective3351-4-1-9"
       inkscape:corner0="-0.1476511 : 0.084286094 : 0 : 1"
       inkscape:corner7="-0.50386431 : 0.02355231 : 0.093886363 : 1"
       inkscape:export-xdpi="93"
       inkscape:export-ydpi="93">
      <path
         sodipodi:type="inkscape:box3dside"
         id="path3535-4-8-67"
         style="fill:none;fill-rule:evenodd;stroke:none;stroke-width:1px;stroke-linecap:butt;stroke-linejoin:round;stroke-opacity:1"
         inkscape:box3dsidetype="11"
         d="m 245.7662,691.0326 70.68893,0 -10.54631,59.8111 -70.68893,0 z"
         points="316.45513,691.0326 305.90882,750.8437 235.21989,750.8437 245.7662,691.0326 " />
      <path
         sodipodi:type="inkscape:box3dside"
         id="path3525-7-9-5"
         style="fill:none;fill-rule:evenodd;stroke:none;stroke-width:1px;stroke-linecap:butt;stroke-linejoin:round;stroke-opacity:1"
         inkscape:box3dsidetype="6"
         d="m 220.91368,679.44367 -10.54632,59.8111 24.85253,11.58893 10.54631,-59.8111 z"
         points="210.36736,739.25477 235.21989,750.8437 245.7662,691.0326 220.91368,679.44367 " />
      <path
         sodipodi:type="inkscape:box3dside"
         id="path3527-9-9-01"
         style="fill:none;fill-rule:evenodd;stroke:none;stroke-width:1px;stroke-linecap:butt;stroke-linejoin:round;stroke-opacity:1"
         inkscape:box3dsidetype="5"
         d="m 220.91368,679.44367 70.68892,0 24.85253,11.58893 -70.68893,0 z"
         points="291.6026,679.44367 316.45513,691.0326 245.7662,691.0326 220.91368,679.44367 " />
      <path
         sodipodi:type="inkscape:box3dside"
         id="path3533-55-0-69"
         style="fill:#666666;fill-rule:evenodd;stroke:none;stroke-width:1px;stroke-linecap:butt;stroke-linejoin:round;stroke-opacity:1"
         inkscape:box3dsidetype="13"
         d="m 210.36736,739.25477 70.68893,0 24.85253,11.58893 -70.68893,0 z"
         points="281.05629,739.25477 305.90882,750.8437 235.21989,750.8437 210.36736,739.25477 " />
      <path
         sodipodi:type="inkscape:box3dside"
         id="path3531-0-4-7"
         style="fill:#cccccc;fill-rule:evenodd;stroke:none;stroke-width:1px;stroke-linecap:butt;stroke-linejoin:round;stroke-opacity:1"
         inkscape:box3dsidetype="14"
         d="m 291.6026,679.44367 -10.54631,59.8111 24.85253,11.58893 10.54631,-59.8111 z"
         points="281.05629,739.25477 305.90882,750.8437 316.45513,691.0326 291.6026,679.44367 " />
      <path
         sodipodi:type="inkscape:box3dside"
         id="path3529-1-7-1"
         style="fill:#ffffff;fill-rule:evenodd;stroke:none;stroke-width:1px;stroke-linecap:butt;stroke-linejoin:round;stroke-opacity:1"
         inkscape:box3dsidetype="3"
         d="m 220.91368,679.44367 70.68892,0 -10.54631,59.8111 -70.68893,0 z"
         points="291.6026,679.44367 281.05629,739.25477 210.36736,739.25477 220.91368,679.44367 " />
    </g>
    <g
       sodipodi:type="inkscape:box3d"
       id="g3523-22-3-8-7"
       style="fill:#ffffff;stroke:none"
       inkscape:perspectiveID="#perspective3351-4-1-4-6"
       inkscape:corner0="-0.15710151 : 0.083908253 : 0 : 1"
       inkscape:corner7="-0.50386431 : 0.02355231 : 0.093886363 : 1"
       inkscape:export-xdpi="93"
       inkscape:export-ydpi="93">
      <path
         sodipodi:type="inkscape:box3dside"
         id="path3535-4-8-4-4"
         style="fill:none;fill-rule:evenodd;stroke:none;stroke-width:1px;stroke-linecap:butt;stroke-linejoin:round;stroke-opacity:1"
         inkscape:box3dsidetype="11"
         d="m 222.70218,821.8355 68.81353,0 -10.4807,59.439 -68.81353,0 z"
         points="291.51571,821.8355 281.03501,881.2745 212.22148,881.2745 222.70218,821.8355 " />
      <path
         sodipodi:type="inkscape:box3dside"
         id="path3525-7-9-0-3"
         style="fill:none;fill-rule:evenodd;stroke:none;stroke-width:1px;stroke-linecap:butt;stroke-linejoin:round;stroke-opacity:1"
         inkscape:box3dsidetype="6"
         d="m 197.84965,810.24657 -10.4807,59.439 24.85253,11.58893 10.4807,-59.439 z"
         points="187.36895,869.68557 212.22148,881.2745 222.70218,821.8355 197.84965,810.24657 " />
      <path
         sodipodi:type="inkscape:box3dside"
         id="path3527-9-9-0-7"
         style="fill:none;fill-rule:evenodd;stroke:none;stroke-width:1px;stroke-linecap:butt;stroke-linejoin:round;stroke-opacity:1"
         inkscape:box3dsidetype="5"
         d="m 197.84965,810.24657 68.81353,0 24.85253,11.58893 -68.81353,0 z"
         points="266.66318,810.24657 291.51571,821.8355 222.70218,821.8355 197.84965,810.24657 " />
      <path
         sodipodi:type="inkscape:box3dside"
         id="path3533-55-0-7-6"
         style="fill:#666666;fill-rule:evenodd;stroke:none;stroke-width:1px;stroke-linecap:butt;stroke-linejoin:round;stroke-opacity:1"
         inkscape:box3dsidetype="13"
         d="m 187.36895,869.68557 68.81353,0 24.85253,11.58893 -68.81353,0 z"
         points="256.18248,869.68557 281.03501,881.2745 212.22148,881.2745 187.36895,869.68557 " />
      <path
         sodipodi:type="inkscape:box3dside"
         id="path3531-0-4-2-7"
         style="fill:#cccccc;fill-rule:evenodd;stroke:none;stroke-width:1px;stroke-linecap:butt;stroke-linejoin:round;stroke-opacity:1"
         inkscape:box3dsidetype="14"
         d="m 266.66318,810.24657 -10.4807,59.439 24.85253,11.58893 10.4807,-59.439 z"
         points="256.18248,869.68557 281.03501,881.2745 291.51571,821.8355 266.66318,810.24657 " />
      <path
         sodipodi:type="inkscape:box3dside"
         id="path3529-1-7-2-3"
         style="fill:#ffffff;fill-rule:evenodd;stroke:none;stroke-width:1px;stroke-linecap:butt;stroke-linejoin:round;stroke-opacity:1"
         inkscape:box3dsidetype="3"
         d="m 197.84965,810.24657 68.81353,0 -10.4807,59.439 -68.81353,0 z"
         points="266.66318,810.24657 256.18248,869.68557 187.36895,869.68557 197.84965,810.24657 " />
    </g>
    <g
       sodipodi:type="inkscape:box3d"
       id="g3495-1-6-7-9"
       style="fill:#ffffff;stroke:none"
       inkscape:perspectiveID="#perspective4600-6"
       inkscape:corner0="0.15353725 : 0.15500152 : 0 : 1"
       inkscape:corner7="-0.15534442 : -0.18090454 : 0.094414138 : 1"
       inkscape:export-xdpi="93"
       inkscape:export-ydpi="93">
      <path
         sodipodi:type="inkscape:box3dside"
         id="path3507-6-6-9-0"
         style="fill:none;fill-rule:evenodd;stroke:none;stroke-width:1px;stroke-linecap:butt;stroke-linejoin:round;stroke-opacity:1"
         inkscape:box3dsidetype="11"
         d="m 327.14433,618.10504 61.29619,0 -58.32948,330.80289 -61.29619,0 z"
         points="388.44052,618.10504 330.11104,948.90793 268.81485,948.90793 327.14433,618.10504 " />
      <path
         sodipodi:type="inkscape:box3dside"
         id="path3497-8-4-5-9"
         style="fill:none;fill-rule:evenodd;stroke:none;stroke-width:1px;stroke-linecap:butt;stroke-linejoin:round;stroke-opacity:1"
         inkscape:box3dsidetype="6"
         d="m 302.15209,606.45097 -58.32947,330.80289 24.99223,11.65407 58.32948,-330.80289 z"
         points="243.82262,937.25386 268.81485,948.90793 327.14433,618.10504 302.15209,606.45097 " />
      <path
         sodipodi:type="inkscape:box3dside"
         id="path3499-9-2-5-0"
         style="fill:none;fill-rule:evenodd;stroke:none;stroke-width:1px;stroke-linecap:butt;stroke-linejoin:round;stroke-opacity:1"
         inkscape:box3dsidetype="5"
         d="m 302.15209,606.45097 61.29619,0 24.99224,11.65407 -61.29619,0 z"
         points="363.44828,606.45097 388.44052,618.10504 327.14433,618.10504 302.15209,606.45097 " />
      <path
         sodipodi:type="inkscape:box3dside"
         id="path3505-0-2-6-8"
         style="fill:#666666;fill-rule:evenodd;stroke:none;stroke-width:1px;stroke-linecap:butt;stroke-linejoin:round;stroke-opacity:1"
         inkscape:box3dsidetype="13"
         d="m 243.82262,937.25386 61.29619,0 24.99223,11.65407 -61.29619,0 z"
         points="305.11881,937.25386 330.11104,948.90793 268.81485,948.90793 243.82262,937.25386 " />
      <path
         sodipodi:type="inkscape:box3dside"
         id="path3503-3-7-6-1"
         style="fill:#cccccc;fill-rule:evenodd;stroke:none;stroke-width:1px;stroke-linecap:butt;stroke-linejoin:round;stroke-opacity:1"
         inkscape:box3dsidetype="14"
         d="m 363.44828,606.45097 -58.32947,330.80289 24.99223,11.65407 58.32948,-330.80289 z"
         points="305.11881,937.25386 330.11104,948.90793 388.44052,618.10504 363.44828,606.45097 " />
      <path
         sodipodi:type="inkscape:box3dside"
         id="path3501-7-9-9-1"
         style="fill:#ffffff;fill-rule:evenodd;stroke:none;stroke-width:1px;stroke-linecap:butt;stroke-linejoin:round;stroke-opacity:1"
         inkscape:box3dsidetype="3"
         d="m 302.15209,606.45097 61.29619,0 -58.32947,330.80289 -61.29619,0 z"
         points="363.44828,606.45097 305.11881,937.25386 243.82262,937.25386 302.15209,606.45097 " />
    </g>
    <g
       sodipodi:type="inkscape:box3d"
       id="g3523-22-3-4-0"
       style="fill:#ffffff;stroke:none"
       inkscape:perspectiveID="#perspective3351-4-1-1-3"
       inkscape:corner0="-0.15943535 : 0.08428224 : 0 : 1"
       inkscape:corner7="-0.50386431 : 0.023459604 : 0.093886363 : 1"
       inkscape:export-xdpi="93"
       inkscape:export-ydpi="93">
      <path
         sodipodi:type="inkscape:box3dside"
         id="path3535-4-8-6-9"
         style="fill:none;fill-rule:evenodd;stroke:none;stroke-width:1px;stroke-linecap:butt;stroke-linejoin:round;stroke-opacity:1"
         inkscape:box3dsidetype="11"
         d="m 375.18076,690.98799 68.3504,0 -10.56174,59.8986 -68.3504,0 z"
         points="443.53116,690.98799 432.96942,750.88659 364.61902,750.88659 375.18076,690.98799 " />
      <path
         sodipodi:type="inkscape:box3dside"
         id="path3525-7-9-4-5"
         style="fill:none;fill-rule:evenodd;stroke:none;stroke-width:1px;stroke-linecap:butt;stroke-linejoin:round;stroke-opacity:1"
         inkscape:box3dsidetype="6"
         d="m 350.32824,679.39907 -10.56174,59.8986 24.85252,11.58892 10.56174,-59.8986 z"
         points="339.7665,739.29767 364.61902,750.88659 375.18076,690.98799 350.32824,679.39907 " />
      <path
         sodipodi:type="inkscape:box3dside"
         id="path3527-9-9-2-5"
         style="fill:none;fill-rule:evenodd;stroke:none;stroke-width:1px;stroke-linecap:butt;stroke-linejoin:round;stroke-opacity:1"
         inkscape:box3dsidetype="5"
         d="m 350.32824,679.39907 68.35039,0 24.85253,11.58892 -68.3504,0 z"
         points="418.67863,679.39907 443.53116,690.98799 375.18076,690.98799 350.32824,679.39907 " />
      <path
         sodipodi:type="inkscape:box3dside"
         id="path3533-55-0-2-3"
         style="fill:#666666;fill-rule:evenodd;stroke:none;stroke-width:1px;stroke-linecap:butt;stroke-linejoin:round;stroke-opacity:1"
         inkscape:box3dsidetype="13"
         d="m 339.7665,739.29767 68.35039,0 24.85253,11.58892 -68.3504,0 z"
         points="408.11689,739.29767 432.96942,750.88659 364.61902,750.88659 339.7665,739.29767 " />
      <path
         sodipodi:type="inkscape:box3dside"
         id="path3531-0-4-9-4"
         style="fill:#cccccc;fill-rule:evenodd;stroke:none;stroke-width:1px;stroke-linecap:butt;stroke-linejoin:round;stroke-opacity:1"
         inkscape:box3dsidetype="14"
         d="m 418.67863,679.39907 -10.56174,59.8986 24.85253,11.58892 10.56174,-59.8986 z"
         points="408.11689,739.29767 432.96942,750.88659 443.53116,690.98799 418.67863,679.39907 " />
      <path
         sodipodi:type="inkscape:box3dside"
         id="path3529-1-7-4-7"
         style="fill:#ffffff;fill-rule:evenodd;stroke:none;stroke-width:1px;stroke-linecap:butt;stroke-linejoin:round;stroke-opacity:1"
         inkscape:box3dsidetype="3"
         d="m 350.32824,679.39907 68.35039,0 -10.56174,59.8986 -68.35039,0 z"
         points="418.67863,679.39907 408.11689,739.29767 339.7665,739.29767 350.32824,679.39907 " />
    </g>
    <g
       sodipodi:type="inkscape:box3d"
       id="g3523-22-3-2-9"
       style="fill:#ffffff;stroke:none"
       inkscape:perspectiveID="#perspective3351-4-1-2-4"
       inkscape:corner0="-0.16148679 : 0.082231276 : 0 : 1"
       inkscape:corner7="-0.50386431 : 0.021750336 : 0.093886363 : 1"
       inkscape:export-xdpi="93"
       inkscape:export-ydpi="93">
      <path
         sodipodi:type="inkscape:box3dside"
         id="path3535-4-8-0-5"
         style="fill:none;fill-rule:evenodd;stroke:none;stroke-width:1px;stroke-linecap:butt;stroke-linejoin:round;stroke-opacity:1"
         inkscape:box3dsidetype="11"
         d="m 352.10882,821.8355 67.94329,0 -10.50241,59.56209 -67.94329,0 z"
         points="420.05211,821.8355 409.5497,881.39759 341.60641,881.39759 352.10882,821.8355 " />
      <path
         sodipodi:type="inkscape:box3dside"
         id="path3525-7-9-3-2"
         style="fill:none;fill-rule:evenodd;stroke:none;stroke-width:1px;stroke-linecap:butt;stroke-linejoin:round;stroke-opacity:1"
         inkscape:box3dsidetype="6"
         d="m 327.25629,810.24657 -10.5024,59.5621 24.85252,11.58892 10.50241,-59.56209 z"
         points="316.75389,869.80867 341.60641,881.39759 352.10882,821.8355 327.25629,810.24657 " />
      <path
         sodipodi:type="inkscape:box3dside"
         id="path3527-9-9-25-3"
         style="fill:none;fill-rule:evenodd;stroke:none;stroke-width:1px;stroke-linecap:butt;stroke-linejoin:round;stroke-opacity:1"
         inkscape:box3dsidetype="5"
         d="m 327.25629,810.24657 67.94329,0 24.85253,11.58893 -67.94329,0 z"
         points="395.19958,810.24657 420.05211,821.8355 352.10882,821.8355 327.25629,810.24657 " />
      <path
         sodipodi:type="inkscape:box3dside"
         id="path3533-55-0-6-4"
         style="fill:#666666;fill-rule:evenodd;stroke:none;stroke-width:1px;stroke-linecap:butt;stroke-linejoin:round;stroke-opacity:1"
         inkscape:box3dsidetype="13"
         d="m 316.75389,869.80867 67.94329,0 24.85252,11.58892 -67.94329,0 z"
         points="384.69718,869.80867 409.5497,881.39759 341.60641,881.39759 316.75389,869.80867 " />
      <path
         sodipodi:type="inkscape:box3dside"
         id="path3531-0-4-0-6"
         style="fill:#cccccc;fill-rule:evenodd;stroke:none;stroke-width:1px;stroke-linecap:butt;stroke-linejoin:round;stroke-opacity:1"
         inkscape:box3dsidetype="14"
         d="m 395.19958,810.24657 -10.5024,59.5621 24.85252,11.58892 10.50241,-59.56209 z"
         points="384.69718,869.80867 409.5497,881.39759 420.05211,821.8355 395.19958,810.24657 " />
      <path
         sodipodi:type="inkscape:box3dside"
         id="path3529-1-7-7-0"
         style="fill:#ffffff;fill-rule:evenodd;stroke:none;stroke-width:1px;stroke-linecap:butt;stroke-linejoin:round;stroke-opacity:1"
         inkscape:box3dsidetype="3"
         d="m 327.25629,810.24657 67.94329,0 -10.5024,59.5621 -67.94329,0 z"
         points="395.19958,810.24657 384.69718,869.80867 316.75389,869.80867 327.25629,810.24657 " />
    </g>
  </g>
</svg>
